<?xml version="1.0" standalone="no"?><!-- Generator: Gravit.io --><svg xmlns="http://www.w3.org/2000/svg" xmlns:xlink="http://www.w3.org/1999/xlink" style="isolation:isolate" viewBox="0 0 24 24.007" width="24" height="24.007"><defs><clipPath id="_clipPath_lf7ypafDqTJ6mqlTWv0ab9YGCe9Y45ql"><rect width="24" height="24.007"/></clipPath></defs><g clip-path="url(#_clipPath_lf7ypafDqTJ6mqlTWv0ab9YGCe9Y45ql)"><clipPath id="_clipPath_4lq0K1J3ImTtNEPpBZY1GtpluActTWmU"><rect x="0" y="0" width="24" height="24.007" transform="matrix(1,0,0,1,0,0)" fill="rgb(255,255,255)"/></clipPath><g clip-path="url(#_clipPath_4lq0K1J3ImTtNEPpBZY1GtpluActTWmU)"><g><path d=" M 12.003 0 L 0.007 7.926 L 0 16.083 L 11.997 24.007 L 23.993 16.081 L 24 7.925 L 12.003 0 Z  M 12.003 14.404 L 8.403 12.003 L 12.003 9.603 L 15.604 12.003 L 12.003 14.404 Z  M 13.204 7.518 L 13.204 3.67 L 20.687 8.615 L 17.768 10.561 L 13.204 7.518 Z  M 10.803 7.518 L 6.239 10.561 L 3.321 8.615 L 10.803 3.67 L 10.803 7.518 Z  M 4.075 12.003 L 2.403 13.119 L 2.405 10.891 L 4.075 12.003 Z  M 6.239 13.447 L 10.803 16.49 L 10.803 20.342 L 3.316 15.394 L 6.239 13.447 Z  M 13.204 16.49 L 17.768 13.447 L 20.684 15.39 L 13.203 20.331 L 13.203 16.49 L 13.204 16.49 Z  M 19.932 12.003 L 21.597 10.893 L 21.595 13.112 L 19.932 12.003 Z " fill="rgb(255,255,255)"/></g></g></g></svg>