<?xml version="1.0" standalone="no"?><!-- Generator: Gravit.io --><svg xmlns="http://www.w3.org/2000/svg" xmlns:xlink="http://www.w3.org/1999/xlink" style="isolation:isolate" viewBox="0 0 14 14" width="14" height="14"><defs><clipPath id="_clipPath_GGSTECRkXHF3FQuL7E0IQlPdO7Kj9VWG"><rect width="14" height="14"/></clipPath></defs><g clip-path="url(#_clipPath_GGSTECRkXHF3FQuL7E0IQlPdO7Kj9VWG)"><path d=" M 11.667 2.333 L 2.333 2.333 C 1.692 2.333 1.172 2.858 1.172 3.5 L 1.167 10.5 C 1.167 11.142 1.692 11.667 2.333 11.667 L 11.667 11.667 C 12.308 11.667 12.833 11.142 12.833 10.5 L 12.833 3.5 C 12.833 2.858 12.308 2.333 11.667 2.333 Z  M 11.667 4.667 L 7 7.583 L 2.333 4.667 L 2.333 3.5 L 7 6.417 L 11.667 3.5 L 11.667 4.667 Z " fill="rgb(255,255,255)"/><path d=" M 0 0 L 14 0 L 14 14 L 0 14 L 0 0 Z " fill="none"/></g></svg>