<?xml version="1.0" standalone="no"?><!-- Generator: Gravit.io --><svg xmlns="http://www.w3.org/2000/svg" xmlns:xlink="http://www.w3.org/1999/xlink" style="isolation:isolate" viewBox="0 0 24 24" width="24" height="24"><defs><clipPath id="_clipPath_QfqwhfUPICNHCaXIEWU8wzck57kzePK1"><rect width="24" height="24"/></clipPath></defs><g clip-path="url(#_clipPath_QfqwhfUPICNHCaXIEWU8wzck57kzePK1)"><path d=" M 12 2.4 C 17.293 2.4 21.6 6.707 21.6 12 C 21.6 17.293 17.293 21.6 12 21.6 C 6.707 21.6 2.4 17.293 2.4 12 C 2.4 6.707 6.707 2.4 12 2.4 Z  M 12 0 C 5.372 0 0 5.372 0 12 C 0 18.628 5.372 24 12 24 C 18.628 24 24 18.626 24 12 C 24 5.374 18.626 0 12 0 L 12 0 Z " fill="rgb(255,255,255)"/><path d=" M 18.305 13.856 C 18.305 13.856 19.508 13.65 20.227 13.66 C 20.946 13.669 21.764 13.886 21.764 13.886" fill="rgb(255,255,255)" vector-effect="non-scaling-stroke" stroke-width="0.25" stroke="rgb(255,255,255)" stroke-linejoin="round" stroke-linecap="round" stroke-miterlimit="10"/><path d=" M 18 14.243 C 18 14.243 19.38 14.12 19.952 14.134 C 20.741 14.154 21.587 14.4 21.587 14.4" fill="rgb(255,255,255)" vector-effect="non-scaling-stroke" stroke-width="0.25" stroke="rgb(255,255,255)" stroke-linejoin="round" stroke-linecap="round" stroke-miterlimit="10"/><path d=" M 6.388 13.562 C 6.388 13.562 4.678 13.4 4.145 13.4 C 3.612 13.4 2.596 13.562 2.111 13.702" fill="rgb(255,255,255)" vector-effect="non-scaling-stroke" stroke-width="0.25" stroke="rgb(255,255,255)" stroke-linejoin="round" stroke-linecap="round" stroke-miterlimit="10"/><path d=" M 6.781 14.093 C 6.781 14.093 4.982 13.926 4.169 14.024 C 3.198 14.14 1.55 14.64 1.55 14.64" fill="rgb(255,255,255)" vector-effect="non-scaling-stroke" stroke-width="0.25" stroke="rgb(255,255,255)" stroke-linejoin="round" stroke-linecap="round" stroke-miterlimit="10"/><path d=" M 6 12.28 C 6 9.63 9.09 7.2 12.734 7.2 C 16.379 7.2 19.2 9.629 19.2 12.28 C 19.2 14.93 17.08 16.8 12.6 16.8 C 8.12 16.8 6 14.93 6 12.28 Z " fill="rgb(255,255,255)"/><path d=" M 14.585 7.463 C 14.585 7.463 15.646 6 17.592 6 C 18.372 6.779 17.838 9.008 17.586 9.673 L 14.585 7.463 Z " fill="rgb(255,255,255)"/><path d=" M 10.614 7.39 C 10.614 7.39 9.553 5.927 7.607 5.927 C 6.828 6.707 7.362 8.936 7.613 9.6 L 10.614 7.39 Z " fill="rgb(255,255,255)"/><path d=" M 10.054 19.2 C 10.054 19.2 8.567 19.2 8.29 19.2 C 7.52 19.2 6.836 18.838 6.505 18.164 C 6.137 17.416 5.789 16.572 4.877 15.871 C 4.717 15.749 4.808 15.569 5.12 15.605 C 5.43 15.644 6.017 15.719 6.467 16.362 C 6.914 17.006 7.402 17.742 8.238 17.742 C 9.074 17.742 9.973 17.766 10.433 17.111 L 10.054 19.2 Z " fill="rgb(255,255,255)"/><path d=" M 13.553 16.237 L 11.647 16.237 C 9.853 16.237 8.4 18.204 8.4 19.585 L 8.4 22.11 C 8.4 22.89 8.874 23.206 9.6 23.339 L 9.6 21 C 9.6 20.67 9.87 20.4 10.2 20.4 C 10.53 20.4 10.8 20.67 10.8 21 L 10.8 23.4 C 10.8 23.412 10.794 23.422 10.794 23.432 L 10.8 23.432 C 11.072 23.436 11.352 23.437 11.647 23.437 L 12 23.437 L 12 19.8 C 12 19.47 12.27 19.2 12.6 19.2 C 12.93 19.2 13.2 19.47 13.2 19.8 L 13.2 23.437 L 13.553 23.437 C 13.848 23.437 14.128 23.436 14.4 23.432 L 14.406 23.432 C 14.406 23.422 14.4 23.412 14.4 23.4 L 14.4 21 C 14.4 20.67 14.67 20.4 15 20.4 C 15.33 20.4 15.6 20.67 15.6 21 L 15.6 23.339 C 16.326 23.204 16.8 22.891 16.8 22.11 L 16.8 19.585 C 16.8 18.204 15.347 16.237 13.553 16.237 Z " fill="rgb(255,255,255)"/></g></svg>