<?xml version="1.0" standalone="no"?><!-- Generator: Gravit.io --><svg xmlns="http://www.w3.org/2000/svg" xmlns:xlink="http://www.w3.org/1999/xlink" style="isolation:isolate" viewBox="0 0 28 28" width="28" height="28"><defs><clipPath id="_clipPath_KI39uYG8OpOOWxDWj6K9dn5eSWSxutlD"><rect width="28" height="28"/></clipPath></defs><g clip-path="url(#_clipPath_KI39uYG8OpOOWxDWj6K9dn5eSWSxutlD)"><path d=" M 18.889 3 L 9.111 3 C 5.737 3 3 5.737 3 9.111 L 3 18.889 C 3 22.263 5.737 25 9.111 25 L 18.889 25 C 22.263 25 25 22.263 25 18.889 L 25 9.111 C 25 5.737 22.263 3 18.889 3 Z  M 14 20.111 C 10.625 20.111 7.889 17.375 7.889 14 C 7.889 10.625 10.625 7.889 14 7.889 C 17.375 7.889 20.111 10.625 20.111 14 C 20.111 17.375 17.375 20.111 14 20.111 Z  M 21.333 7.889 C 20.659 7.889 20.111 7.341 20.111 6.667 C 20.111 5.992 20.659 5.444 21.333 5.444 C 22.008 5.444 22.556 5.992 22.556 6.667 C 22.556 7.341 22.008 7.889 21.333 7.889 Z " fill="rgb(255,255,255)"/><circle vector-effect="non-scaling-stroke" cx="13.999999999999998" cy="13.999999999999998" r="3.666666666666666" fill="rgb(255,255,255)"/></g></svg>