<svg xmlns="http://www.w3.org/2000/svg" style="isolation:isolate" width="18" height="18"><defs><clipPath id="a"><path d="M0 0h18v18H0z"/></clipPath></defs><g clip-path="url(#a)"><path fill="#2A2D34" d="M6.6 12.06C4.7 11.43 3 10.1 1.53 8.17L1 7.47l2.55-.92c3.29-1.17 3.68-1.24 4.66-.8.76.33.82.33 1.58 0 1-.44 1.38-.37 4.66.8l2.55.92-.53.7c-2.06 2.73-4.86 4.34-7.54 4.33a9.2 9.2 0 0 1-2.33-.44zm6.28-3.38c1.06-.3 1.9-.58 1.85-.62-.04-.05-1.35.07-2.9.26-2.7.34-2.95.34-5.65 0-1.55-.19-2.86-.3-2.9-.26-.08.07 3.1.99 4.12 1.18 1.1.21 3.62-.05 5.48-.56z"/></g></svg>