<?xml version="1.0" standalone="no"?><!-- Generator: Gravit.io --><svg xmlns="http://www.w3.org/2000/svg" xmlns:xlink="http://www.w3.org/1999/xlink" style="isolation:isolate" viewBox="0 0 14 14" width="14" height="14"><defs><clipPath id="_clipPath_YnMdJjmTuNXCx1werakA97owG2bWufTC"><rect width="14" height="14"/></clipPath></defs><g clip-path="url(#_clipPath_YnMdJjmTuNXCx1werakA97owG2bWufTC)"><path d=" M 7 1.167 C 4.743 1.167 2.917 2.992 2.917 5.25 C 2.917 8.312 7 12.833 7 12.833 C 7 12.833 11.083 8.312 11.083 5.25 C 11.083 2.992 9.258 1.167 7 1.167 Z  M 7 6.708 C 6.195 6.708 5.542 6.055 5.542 5.25 C 5.542 4.445 6.195 3.792 7 3.792 C 7.805 3.792 8.458 4.445 8.458 5.25 C 8.458 6.055 7.805 6.708 7 6.708 Z " fill="rgb(255,255,255)"/><path d=" M 0 0 L 14 0 L 14 14 L 0 14 L 0 0 Z " fill="none"/></g></svg>