<?xml version="1.0" standalone="no"?><!-- Generator: Gravit.io --><svg xmlns="http://www.w3.org/2000/svg" xmlns:xlink="http://www.w3.org/1999/xlink" style="isolation:isolate" viewBox="0 0 14 14" width="14" height="14"><defs><clipPath id="_clipPath_CWrSJ6Ep1GsraW6GOclhUa4bXKgdPzKw"><rect width="14" height="14"/></clipPath></defs><g clip-path="url(#_clipPath_CWrSJ6Ep1GsraW6GOclhUa4bXKgdPzKw)"><path d=" M 0 0 L 14 0 L 14 14 L 0 14 L 0 0 Z " fill="none"/><path d=" M 3.862 6.294 C 4.702 7.945 6.055 9.293 7.706 10.138 L 8.989 8.855 C 9.147 8.698 9.38 8.645 9.584 8.715 C 10.238 8.931 10.943 9.048 11.667 9.048 C 11.988 9.048 12.25 9.31 12.25 9.631 L 12.25 11.667 C 12.25 11.988 11.988 12.25 11.667 12.25 C 6.189 12.25 1.75 7.811 1.75 2.333 C 1.75 2.013 2.013 1.75 2.333 1.75 L 4.375 1.75 C 4.696 1.75 4.958 2.013 4.958 2.333 C 4.958 3.063 5.075 3.763 5.291 4.416 C 5.355 4.62 5.308 4.848 5.145 5.011 L 3.862 6.294 Z " fill="rgb(255,255,255)"/></g></svg>