<?xml version="1.0" standalone="no"?><!-- Generator: Gravit.io --><svg xmlns="http://www.w3.org/2000/svg" xmlns:xlink="http://www.w3.org/1999/xlink" style="isolation:isolate" viewBox="0 0 24 24" width="24" height="24"><defs><clipPath id="_clipPath_pZnxo0I4ZNjrzXgYqvavGoVK84B5rw7Z"><rect width="24" height="24"/></clipPath></defs><g clip-path="url(#_clipPath_pZnxo0I4ZNjrzXgYqvavGoVK84B5rw7Z)"><clipPath id="_clipPath_LwGugyccSuEAiTZLsrWGm3NqJVh050GM"><rect x="0" y="0" width="24" height="24" transform="matrix(1,0,0,1,0,0)" fill="rgb(255,255,255)"/></clipPath><g clip-path="url(#_clipPath_LwGugyccSuEAiTZLsrWGm3NqJVh050GM)"><g><path d=" M 0 12 L 0 0 L 12 0 L 24 0 L 24 12 L 24 24 L 12 24 L 0 24 L 0 12 Z " fill="none"/><path d=" M 10.341 23.824 C 6.46 23.259 3.014 20.734 1.294 17.196 C 0.917 16.422 0.914 16.404 0.914 15.561 C 0.914 13.396 1.464 11.095 2.337 9.614 C 3.943 6.886 7.139 5.512 11.003 5.889 C 11.552 5.943 12.206 6.033 12.457 6.092 L 12.914 6.196 L 11.871 6.244 C 10.655 6.3 9.784 6.553 8.809 7.132 C 8.055 7.581 6.945 8.636 6.4 9.425 C 5.181 11.19 4.581 13.465 4.808 15.476 C 5.031 17.461 5.737 18.982 7.1 20.414 C 8.479 21.863 10.173 22.834 12.562 23.545 C 12.963 23.664 13.269 23.797 13.242 23.84 C 13.183 23.935 11.023 23.924 10.341 23.824 Z  M 14.283 23.078 C 9.595 22.546 6.836 20.185 6.183 16.144 C 6.009 15.066 6.011 13.559 6.189 12.327 C 6.343 11.263 6.512 10.671 6.441 11.446 C 6.393 11.974 6.519 13.068 6.7 13.702 C 7.457 16.343 10.1 18.543 13.237 19.144 C 14.083 19.306 15.627 19.311 16.443 19.154 C 19.046 18.651 21.157 17.033 22.6 14.435 C 22.966 13.775 23.575 12.32 23.747 11.69 C 23.934 11.007 24.027 11.314 23.964 12.406 C 23.774 15.672 22.65 18.227 20.435 20.429 C 19.367 21.491 18.501 22.111 17.198 22.748 C 16.352 23.161 16.317 23.169 15.62 23.159 C 15.227 23.153 14.626 23.116 14.283 23.078 Z  M 12.041 18.033 C 12.041 17.979 12.173 17.937 12.348 17.937 C 13.196 17.937 14.662 17.349 15.615 16.628 C 18.492 14.445 19.791 9.92 18.57 6.336 C 18.146 5.093 17.289 3.739 16.391 2.895 C 15.135 1.713 12.99 0.655 11.167 0.32 C 10.167 0.135 10.568 0.061 12.311 0.106 C 14.114 0.154 14.862 0.286 16.231 0.798 C 18.988 1.83 21.363 3.976 22.695 6.639 L 23.211 7.672 L 23.239 8.692 C 23.375 13.76 20.639 17.048 15.573 17.903 C 14.58 18.071 12.041 18.165 12.041 18.033 Z  M 11.543 15.572 C 10.62 15.327 9.756 14.606 9.336 13.728 C 9.033 13.095 8.963 12.057 9.175 11.33 C 9.458 10.355 10.257 9.489 11.206 9.129 C 11.74 8.926 12.987 8.91 13.529 9.099 C 13.984 9.257 14.778 9.807 15.015 10.128 C 15.999 11.457 16.024 13.065 15.084 14.343 C 14.293 15.417 12.854 15.917 11.543 15.572 L 11.543 15.572 Z  M 0.235 13.44 C 0.046 13.109 0.101 10.695 0.321 9.659 C 1.105 5.953 3.456 2.905 6.794 1.267 L 7.733 0.806 L 8.953 0.861 C 11.575 0.982 13.205 1.429 14.74 2.449 C 16.636 3.708 17.751 5.666 18.113 8.374 C 18.217 9.155 18.164 11.622 18.031 12.124 C 17.957 12.405 17.955 12.399 17.943 11.959 C 17.925 11.253 17.733 10.32 17.462 9.621 C 16.231 6.457 12.378 4.316 8.652 4.727 C 4.774 5.154 1.856 8.039 0.68 12.606 C 0.547 13.12 0.418 13.562 0.393 13.587 C 0.367 13.612 0.296 13.546 0.235 13.44 Z " fill="rgb(209,209,209)"/><path d=" M 10.92 23.863 C 9.445 23.692 8.194 23.352 7.018 22.803 C 4.406 21.582 2.295 19.437 1.158 16.848 L 0.89 16.236 L 0.942 15.152 C 1.097 11.912 1.956 9.646 3.639 8.038 C 4.747 6.98 6.119 6.317 7.8 6.03 C 8.739 5.87 10.671 5.853 11.745 5.997 L 12.498 6.097 L 11.639 6.201 C 10.54 6.333 10.056 6.477 9.157 6.938 C 5.726 8.695 3.912 13.284 5.122 17.145 C 6.046 20.09 8.381 22.19 12.093 23.414 C 13.151 23.763 13.266 23.817 13.033 23.864 C 12.766 23.918 11.383 23.917 10.92 23.863 L 10.92 23.863 Z  M 14.501 23.082 C 9.771 22.555 7.096 20.426 6.261 16.526 C 6.068 15.62 6.048 13.259 6.225 12.166 L 6.345 11.419 L 6.41 12.146 C 6.582 14.09 7.244 15.472 8.649 16.822 C 11.791 19.843 16.639 20.162 20.006 17.571 C 21.518 16.406 22.752 14.584 23.553 12.333 C 23.869 11.446 23.909 11.373 23.919 11.667 C 23.975 13.449 23.677 15.065 23.003 16.629 C 22.342 18.164 21.573 19.295 20.389 20.47 C 19.465 21.387 18.465 22.104 17.293 22.686 C 16.475 23.092 16.353 23.129 15.78 23.142 C 15.436 23.149 14.861 23.122 14.501 23.082 Z  M 12.324 18.034 C 12.357 17.981 12.497 17.937 12.636 17.937 C 13.035 17.937 14.352 17.463 14.99 17.091 C 15.827 16.601 17.111 15.279 17.667 14.331 C 19.298 11.559 19.51 8.197 18.231 5.429 C 17.346 3.512 15.56 1.87 13.404 0.989 C 12.6 0.661 11.187 0.249 10.865 0.249 C 10.766 0.249 10.725 0.213 10.761 0.155 C 10.843 0.022 13.566 0.121 14.367 0.285 C 17.985 1.032 21.07 3.403 22.707 6.696 C 23.229 7.747 23.287 8.043 23.225 9.336 C 23.101 11.92 22.43 13.717 21.032 15.202 C 19.341 16.999 16.953 17.909 13.493 18.072 C 12.57 18.116 12.279 18.106 12.324 18.034 Z  M 11.808 15.603 C 10.773 15.43 9.822 14.701 9.36 13.725 C 9.112 13.203 9.093 13.101 9.095 12.291 C 9.096 11.477 9.114 11.382 9.367 10.863 C 9.711 10.155 10.274 9.592 10.962 9.267 C 11.463 9.028 11.567 9.01 12.415 9.01 C 13.247 9.01 13.371 9.031 13.802 9.243 C 14.816 9.741 15.502 10.637 15.703 11.725 C 16.039 13.55 14.747 15.343 12.904 15.609 C 12.59 15.655 12.314 15.688 12.291 15.684 C 12.267 15.68 12.051 15.643 11.808 15.603 Z  M 0.249 13.413 C 0.087 13.215 0.111 11.032 0.288 10.007 C 0.723 7.491 1.814 5.399 3.648 3.566 C 4.681 2.534 5.547 1.905 6.791 1.287 L 7.544 0.914 L 8.723 0.914 C 14.287 0.914 17.565 3.6 18.111 8.608 C 18.208 9.51 18.166 11.371 18.034 11.959 C 17.979 12.201 17.961 12.127 17.917 11.502 C 17.667 7.885 14.212 4.89 10.044 4.676 C 7.071 4.523 4.464 5.781 2.619 8.26 C 1.848 9.297 1.066 11.021 0.67 12.559 C 0.543 13.053 0.42 13.476 0.398 13.499 C 0.375 13.521 0.308 13.483 0.249 13.413 Z " fill="rgb(193,193,193)"/><path d=" M 10.759 23.825 C 6.655 23.393 3.06 20.831 1.278 17.068 L 0.893 16.257 L 0.951 15.166 C 1.241 9.766 3.511 6.789 7.921 6.024 C 8.805 5.871 10.5 5.858 11.61 5.997 L 12.415 6.097 L 11.529 6.202 C 9.557 6.438 7.881 7.417 6.62 9.069 C 5.295 10.805 4.669 12.798 4.759 14.99 C 4.827 16.664 5.208 17.861 6.114 19.252 C 6.616 20.023 7.561 21.021 8.305 21.564 C 9.449 22.401 11.177 23.217 12.618 23.601 L 13.329 23.79 L 12.955 23.847 C 12.471 23.922 11.589 23.913 10.759 23.825 L 10.759 23.825 Z  M 14.657 23.078 C 10.849 22.723 8.299 21.247 6.999 18.644 C 6.203 17.051 5.913 14.945 6.179 12.712 C 6.253 12.099 6.326 11.584 6.341 11.569 C 6.357 11.553 6.393 11.868 6.42 12.268 C 6.535 13.944 7.246 15.459 8.513 16.725 C 10.258 18.471 12.807 19.449 15.28 19.321 C 19.107 19.124 22.17 16.505 23.627 12.187 L 23.914 11.336 L 23.915 12.14 C 23.924 16.575 21.317 20.687 17.232 22.682 C 16.137 23.217 16.143 23.216 14.657 23.078 L 14.657 23.078 Z  M 12.623 18.028 C 12.451 17.979 12.489 17.96 12.841 17.917 C 13.467 17.841 14.54 17.398 15.249 16.923 C 18.741 14.588 20.097 9.361 18.231 5.422 C 17.165 3.173 15.278 1.57 12.679 0.707 C 12.214 0.553 11.601 0.379 11.316 0.321 C 10.588 0.174 10.822 0.086 11.948 0.084 C 16.631 0.078 20.818 2.715 22.794 6.914 C 23.235 7.851 23.31 8.457 23.171 9.955 C 22.773 14.254 20.374 16.889 16.06 17.765 C 15.41 17.898 13.101 18.136 12.872 18.095 C 12.849 18.091 12.737 18.061 12.623 18.028 L 12.623 18.028 Z  M 11.85 15.602 C 10.595 15.426 9.459 14.382 9.165 13.133 C 8.781 11.505 9.509 9.989 11.035 9.24 C 11.458 9.032 11.586 9.01 12.415 9.01 C 13.247 9.01 13.371 9.031 13.802 9.243 C 15.165 9.912 15.985 11.46 15.708 12.841 C 15.327 14.736 13.748 15.866 11.85 15.602 L 11.85 15.602 Z  M 0.245 13.363 C 0.172 13.227 0.157 12.752 0.188 11.633 C 0.225 10.268 0.26 9.978 0.483 9.117 C 1.383 5.637 3.681 2.816 6.893 1.245 L 7.599 0.9 L 9.052 0.94 C 10.957 0.993 12.104 1.212 13.458 1.783 C 15.22 2.525 16.626 3.918 17.364 5.653 C 17.941 7.008 18.252 8.996 18.147 10.65 C 18.065 11.931 17.979 12.171 17.913 11.309 C 17.699 8.566 15.295 5.933 12.177 5.03 C 11.163 4.736 10.569 4.652 9.508 4.653 C 6.202 4.654 3.296 6.561 1.663 9.8 C 1.326 10.468 0.865 11.74 0.623 12.67 C 0.507 13.118 0.397 13.499 0.379 13.517 C 0.361 13.536 0.301 13.467 0.245 13.363 L 0.245 13.363 Z " fill="rgb(161,161,161)"/><path d=" M 11.019 23.832 C 7.388 23.495 4.278 21.663 2.175 18.621 C 1.93 18.267 1.566 17.637 1.364 17.218 L 0.997 16.458 L 0.998 15.433 C 1.005 11.013 2.824 7.785 6.003 6.555 C 7.255 6.071 8.061 5.945 9.882 5.951 C 10.773 5.954 11.67 5.995 11.876 6.042 L 12.249 6.127 L 11.917 6.137 C 8.98 6.223 6.2 8.565 5.155 11.834 C 4.8 12.945 4.706 13.693 4.755 15.007 C 4.805 16.337 4.977 17.091 5.472 18.147 C 6.675 20.714 9.233 22.689 12.524 23.59 C 12.898 23.693 13.196 23.786 13.184 23.796 C 13.106 23.863 11.623 23.888 11.019 23.832 L 11.019 23.832 Z  M 15.114 23.082 C 10.867 22.811 8.074 21.181 6.837 18.248 C 6.233 16.818 5.98 15.003 6.143 13.273 C 6.196 12.71 6.27 12.099 6.308 11.917 L 6.375 11.585 L 6.386 12.041 C 6.431 14.091 7.51 16.084 9.323 17.467 C 12.34 19.769 16.433 19.976 19.474 17.979 C 21.339 16.755 22.707 14.867 23.637 12.235 L 23.925 11.419 L 23.88 12.54 C 23.786 14.889 22.947 17.264 21.559 19.105 C 20.833 20.068 19.571 21.255 18.591 21.898 C 17.831 22.395 16.61 23.022 16.235 23.105 C 16.144 23.126 15.639 23.115 15.114 23.082 L 15.114 23.082 Z  M 12.747 17.967 C 14.227 17.66 15.332 17.064 16.411 15.992 C 18.435 13.981 19.469 10.656 18.975 7.755 C 18.341 4.037 15.785 1.439 11.753 0.414 L 10.841 0.183 L 11.329 0.122 C 11.91 0.049 13.222 0.129 14.178 0.297 C 16.136 0.638 18.261 1.653 19.806 2.985 C 21.086 4.089 22.293 5.727 22.927 7.224 L 23.191 7.846 L 23.147 9.342 C 23.101 10.948 22.942 11.797 22.474 12.947 C 21.943 14.25 20.899 15.513 19.689 16.315 C 18.082 17.379 15.651 18.036 13.412 18.011 C 12.955 18.006 12.656 17.986 12.747 17.967 L 12.747 17.967 Z  M 11.782 15.569 C 11.075 15.429 10.622 15.195 10.089 14.691 C 8.602 13.285 8.762 10.875 10.424 9.615 C 11.028 9.157 11.523 9.01 12.457 9.011 C 13.165 9.011 13.301 9.038 13.785 9.267 C 14.781 9.739 15.458 10.626 15.694 11.772 C 15.892 12.732 15.511 13.883 14.739 14.655 C 14.241 15.154 13.605 15.488 12.997 15.57 C 12.768 15.601 12.525 15.638 12.457 15.652 C 12.388 15.667 12.085 15.629 11.782 15.569 L 11.782 15.569 Z  M 0.246 13.235 C 0.171 13.011 0.157 12.549 0.193 11.589 C 0.267 9.65 0.565 8.434 1.383 6.75 C 2.545 4.358 4.348 2.548 6.797 1.317 L 7.599 0.915 L 8.57 0.914 C 12.353 0.912 15.233 2.192 16.76 4.554 C 17.749 6.084 18.277 8.532 18.111 10.815 C 18.05 11.655 17.937 12.012 17.937 11.367 C 17.937 10.668 17.547 9.481 17.043 8.648 C 15.959 6.854 14.163 5.552 11.899 4.919 C 11.151 4.71 10.969 4.692 9.591 4.694 C 8.291 4.695 8.005 4.719 7.391 4.887 C 4.063 5.792 1.67 8.533 0.613 12.65 C 0.494 13.114 0.386 13.507 0.373 13.521 C 0.359 13.536 0.303 13.407 0.246 13.235 Z " fill="rgb(131,131,131)"/><path d=" M 10.399 23.745 C 9.153 23.583 7.481 23.041 6.411 22.451 C 4.244 21.257 2.398 19.316 1.335 17.112 C 1.001 16.42 0.997 16.397 0.999 15.492 C 1.001 13.838 1.323 12.065 1.85 10.796 C 2.954 8.14 4.762 6.692 7.723 6.093 C 8.527 5.93 10.44 5.891 11.502 6.015 L 12.166 6.093 L 11.504 6.159 C 9.115 6.393 6.89 8.051 5.667 10.505 C 4.236 13.378 4.384 16.699 6.057 19.239 C 7.398 21.273 9.668 22.803 12.581 23.633 L 13.245 23.822 L 12.083 23.817 C 11.444 23.815 10.686 23.782 10.399 23.745 L 10.399 23.745 Z  M 14.492 23.033 C 11.729 22.645 10.389 22.153 8.895 20.979 C 7.876 20.18 6.98 18.833 6.567 17.485 C 6.148 16.121 6.021 14.215 6.239 12.567 L 6.347 11.751 L 6.409 12.51 C 6.665 15.695 9.513 18.493 13.241 19.223 C 14.307 19.432 16.123 19.365 17.107 19.08 C 20.181 18.189 22.335 15.925 23.683 12.166 L 23.921 11.502 L 23.875 12.415 C 23.795 14.001 23.556 15.131 23.021 16.462 C 21.953 19.114 19.935 21.284 17.268 22.643 C 16.488 23.041 16.48 23.043 15.613 23.055 C 15.133 23.063 14.628 23.053 14.492 23.033 Z  M 13.319 17.864 C 16.676 16.917 19.1 13.311 19.1 9.26 C 19.101 5.817 17.43 3.042 14.357 1.38 C 13.536 0.936 12.726 0.633 11.67 0.373 L 10.924 0.189 L 11.462 0.132 C 12.068 0.068 13.604 0.193 14.511 0.381 C 18.111 1.124 21.163 3.565 22.813 7.022 L 23.128 7.682 L 23.121 9.177 C 23.113 10.509 23.088 10.771 22.887 11.585 C 21.905 15.549 18.743 17.77 13.785 17.981 L 12.747 18.025 L 13.319 17.864 Z  M 11.575 15.538 C 10.743 15.325 9.751 14.517 9.405 13.773 C 8.952 12.8 8.978 11.722 9.479 10.732 C 9.806 10.088 10.307 9.615 11.03 9.273 C 11.538 9.033 11.655 9.01 12.415 9.01 C 13.171 9.01 13.294 9.033 13.785 9.267 C 14.928 9.809 15.614 10.83 15.68 12.087 C 15.723 12.921 15.557 13.566 15.139 14.182 C 14.535 15.073 13.65 15.549 12.54 15.584 C 12.152 15.595 11.717 15.575 11.575 15.538 L 11.575 15.538 Z  M 0.29 13.369 C 0.173 13.18 0.146 11.565 0.245 10.711 C 0.416 9.244 0.787 7.983 1.429 6.691 C 1.988 5.565 2.555 4.766 3.484 3.795 C 4.509 2.726 5.451 2.024 6.706 1.396 L 7.725 0.888 L 8.954 0.941 C 11.511 1.052 13.225 1.522 14.739 2.53 C 16.294 3.564 17.294 5.073 17.824 7.184 C 17.996 7.864 18.042 8.292 18.08 9.558 C 18.109 10.509 18.095 11.158 18.045 11.248 C 17.98 11.364 17.951 11.295 17.908 10.93 C 17.832 10.282 17.428 9.223 16.991 8.522 C 15.855 6.701 14.043 5.457 11.645 4.847 C 10.455 4.545 8.817 4.525 7.706 4.799 C 6.039 5.211 4.897 5.832 3.709 6.973 C 2.228 8.394 1.19 10.295 0.576 12.706 C 0.375 13.496 0.372 13.502 0.29 13.369 Z " fill="rgb(255,255,255)"/><path d=" M 12.674 23.766 C 12.651 23.728 12.741 23.714 12.876 23.733 C 13.011 23.753 13.121 23.784 13.121 23.802 C 13.121 23.865 12.715 23.833 12.674 23.766 L 12.674 23.766 Z  M 10.403 23.693 C 10.484 23.673 10.596 23.673 10.652 23.697 C 10.708 23.719 10.642 23.736 10.505 23.734 C 10.368 23.733 10.323 23.715 10.403 23.693 L 10.403 23.693 Z  M 12.358 23.611 C 12.418 23.587 12.489 23.59 12.518 23.618 C 12.545 23.645 12.495 23.665 12.408 23.661 C 12.311 23.657 12.292 23.637 12.358 23.611 L 12.358 23.611 Z  M 9.036 23.445 C 9.096 23.421 9.168 23.424 9.195 23.451 C 9.223 23.479 9.174 23.499 9.087 23.495 C 8.99 23.491 8.97 23.471 9.036 23.445 L 9.036 23.445 Z  M 14.306 22.946 C 14.387 22.925 14.499 22.926 14.555 22.949 C 14.612 22.971 14.546 22.989 14.409 22.987 C 14.271 22.986 14.225 22.967 14.306 22.946 L 14.306 22.946 Z  M 3.856 20.574 L 3.613 20.305 L 3.882 20.548 C 4.134 20.775 4.191 20.844 4.126 20.844 C 4.112 20.844 3.991 20.723 3.856 20.574 Z  M 20.47 20.263 C 20.553 20.172 20.64 20.097 20.662 20.097 C 20.685 20.097 20.637 20.172 20.553 20.263 C 20.471 20.355 20.385 20.429 20.361 20.429 C 20.339 20.429 20.388 20.355 20.47 20.263 Z  M 21.01 19.65 C 21.01 19.633 21.075 19.568 21.156 19.505 C 21.287 19.401 21.291 19.405 21.187 19.536 C 21.079 19.675 21.01 19.719 21.01 19.65 Z  M 14.102 19.376 C 14.162 19.352 14.234 19.355 14.261 19.383 C 14.289 19.41 14.24 19.43 14.152 19.426 C 14.055 19.422 14.036 19.402 14.102 19.376 L 14.102 19.376 Z  M 15.508 19.377 C 15.566 19.354 15.659 19.354 15.717 19.377 C 15.773 19.401 15.727 19.419 15.613 19.419 C 15.498 19.419 15.452 19.401 15.508 19.377 Z  M 12.939 19.209 C 12.999 19.185 13.071 19.189 13.099 19.216 C 13.126 19.244 13.077 19.263 12.99 19.26 C 12.893 19.256 12.873 19.236 12.939 19.209 L 12.939 19.209 Z  M 16.677 19.209 C 16.737 19.185 16.808 19.189 16.836 19.216 C 16.863 19.244 16.815 19.263 16.726 19.26 C 16.63 19.256 16.611 19.236 16.677 19.209 L 16.677 19.209 Z  M 12.879 17.991 C 12.978 17.906 13.371 17.862 13.371 17.936 C 13.371 17.983 13.252 18.021 13.107 18.021 C 12.963 18.021 12.86 18.008 12.879 17.991 Z  M 19.599 17.99 C 19.599 17.973 19.664 17.907 19.744 17.844 C 19.875 17.741 19.879 17.744 19.775 17.876 C 19.667 18.014 19.599 18.057 19.599 17.99 Z  M 14.767 17.881 C 14.826 17.857 14.898 17.86 14.925 17.888 C 14.953 17.915 14.904 17.935 14.817 17.931 C 14.72 17.927 14.7 17.907 14.767 17.881 L 14.767 17.881 Z  M 15.763 17.715 C 15.823 17.691 15.895 17.694 15.922 17.721 C 15.95 17.749 15.901 17.769 15.813 17.765 C 15.717 17.761 15.697 17.741 15.763 17.715 L 15.763 17.715 Z  M 14.367 17.49 C 14.367 17.472 14.425 17.435 14.496 17.408 C 14.57 17.379 14.603 17.393 14.574 17.44 C 14.525 17.519 14.367 17.557 14.367 17.49 Z  M 1.048 16.481 C 1.02 16.407 1.004 15.929 1.012 15.419 L 1.028 14.492 L 1.075 15.53 C 1.125 16.659 1.125 16.68 1.048 16.481 Z  M 19.101 16.576 C 19.101 16.558 19.158 16.521 19.229 16.494 C 19.303 16.466 19.336 16.479 19.307 16.527 C 19.258 16.605 19.101 16.644 19.101 16.576 Z  M 4.657 15.647 C 4.661 15.55 4.681 15.531 4.707 15.597 C 4.731 15.657 4.728 15.729 4.701 15.756 C 4.673 15.783 4.653 15.735 4.657 15.647 L 4.657 15.647 Z  M 20.346 15.747 C 20.346 15.73 20.411 15.664 20.492 15.602 C 20.623 15.499 20.626 15.501 20.523 15.633 C 20.415 15.771 20.346 15.815 20.346 15.747 Z  M 16.775 15.664 C 16.775 15.647 16.84 15.581 16.92 15.519 C 17.052 15.416 17.055 15.418 16.952 15.55 C 16.843 15.688 16.775 15.733 16.775 15.664 Z  M 11.37 15.46 C 9.018 14.68 8.312 11.712 10.059 9.947 C 11.351 8.642 13.502 8.663 14.803 9.994 C 16.089 11.311 15.952 13.741 14.529 14.869 C 13.676 15.543 12.363 15.789 11.37 15.46 Z  M 6.165 15.197 C 6.165 15.038 6.182 14.972 6.202 15.052 C 6.224 15.132 6.224 15.262 6.202 15.343 C 6.182 15.423 6.165 15.357 6.165 15.197 Z  M 1.086 14.069 C 1.09 13.972 1.11 13.953 1.137 14.019 C 1.161 14.079 1.157 14.151 1.13 14.178 C 1.102 14.205 1.083 14.157 1.086 14.069 L 1.086 14.069 Z  M 23.674 13.903 C 23.679 13.806 23.698 13.786 23.725 13.853 C 23.749 13.913 23.745 13.984 23.718 14.012 C 23.691 14.04 23.671 13.99 23.674 13.903 L 23.674 13.903 Z  M 6.168 13.454 C 6.168 13.248 6.184 13.164 6.204 13.267 C 6.224 13.369 6.224 13.538 6.204 13.64 C 6.184 13.743 6.168 13.659 6.168 13.454 Z  M 0.304 13.398 C 0.274 13.367 0.249 13.304 0.249 13.257 C 0.249 13.204 0.288 13.209 0.347 13.269 C 0.401 13.323 0.426 13.387 0.403 13.41 C 0.379 13.434 0.335 13.428 0.304 13.398 Z  M 4.74 13.072 C 4.744 12.976 4.764 12.957 4.791 13.023 C 4.815 13.083 4.811 13.154 4.784 13.182 C 4.756 13.209 4.737 13.161 4.74 13.072 L 4.74 13.072 Z  M 6.273 12.586 C 6.297 12.406 6.333 12.241 6.355 12.219 C 6.424 12.15 6.386 12.575 6.307 12.747 C 6.252 12.868 6.243 12.824 6.273 12.586 Z  M 22.422 12.794 C 22.422 12.751 22.459 12.693 22.504 12.665 C 22.551 12.636 22.565 12.669 22.537 12.743 C 22.482 12.887 22.422 12.913 22.422 12.794 Z  M 4.983 12.005 C 4.983 11.939 5.017 11.865 5.058 11.839 C 5.099 11.813 5.114 11.867 5.09 11.958 C 5.039 12.153 4.983 12.177 4.983 12.005 Z  M 23.841 11.661 C 23.845 11.565 23.864 11.545 23.89 11.611 C 23.914 11.671 23.912 11.742 23.884 11.77 C 23.857 11.798 23.837 11.749 23.841 11.661 L 23.841 11.661 Z  M 18.947 11.128 C 18.947 11.013 18.966 10.967 18.989 11.025 C 19.012 11.081 19.012 11.175 18.989 11.232 C 18.966 11.289 18.947 11.242 18.947 11.128 Z  M 17.981 10.953 C 18.029 10.705 18.104 10.648 18.104 10.86 C 18.104 10.956 18.069 11.057 18.025 11.084 C 17.981 11.111 17.961 11.053 17.981 10.953 L 17.981 10.953 Z  M 0.255 10.665 C 0.26 10.568 0.279 10.548 0.306 10.614 C 0.33 10.674 0.327 10.746 0.299 10.773 C 0.272 10.801 0.252 10.752 0.255 10.665 Z  M 5.694 10.273 C 5.725 10.191 5.771 10.145 5.797 10.171 C 5.823 10.197 5.797 10.263 5.74 10.32 C 5.658 10.401 5.649 10.392 5.694 10.273 L 5.694 10.273 Z  M 0.339 10 C 0.343 9.903 0.363 9.884 0.389 9.95 C 0.413 10.01 0.41 10.082 0.382 10.109 C 0.355 10.137 0.335 10.088 0.339 10 Z  M 17.944 8.173 C 17.949 8.076 17.968 8.056 17.995 8.123 C 18.019 8.183 18.015 8.254 17.988 8.282 C 17.961 8.31 17.941 8.26 17.944 8.173 L 17.944 8.173 Z  M 19.024 7.758 C 19.028 7.661 19.047 7.641 19.074 7.707 C 19.098 7.767 19.095 7.839 19.067 7.867 C 19.04 7.894 19.02 7.845 19.024 7.758 L 19.024 7.758 Z  M 18.947 7.391 C 18.947 7.277 18.966 7.23 18.989 7.287 C 19.012 7.344 19.012 7.437 18.989 7.495 C 18.966 7.552 18.947 7.505 18.947 7.391 Z  M 15.187 6.498 C 15.083 6.367 15.087 6.363 15.218 6.467 C 15.357 6.575 15.4 6.644 15.332 6.644 C 15.315 6.644 15.249 6.579 15.187 6.498 Z  M 10.863 6.171 C 10.923 6.147 10.995 6.151 11.023 6.178 C 11.05 6.206 11.001 6.225 10.913 6.222 C 10.817 6.218 10.797 6.198 10.863 6.171 L 10.863 6.171 Z  M 7.874 6.088 C 7.934 6.064 8.005 6.068 8.033 6.095 C 8.061 6.123 8.012 6.142 7.924 6.139 C 7.827 6.135 7.808 6.115 7.874 6.088 L 7.874 6.088 Z  M 11.482 6.086 C 11.608 6.067 11.795 6.067 11.897 6.087 C 11.999 6.106 11.896 6.123 11.667 6.122 C 11.439 6.121 11.356 6.105 11.482 6.086 Z  M 5.232 5.697 C 5.232 5.679 5.289 5.643 5.361 5.615 C 5.434 5.587 5.468 5.601 5.439 5.648 C 5.39 5.727 5.232 5.765 5.232 5.697 Z  M 6.146 5.232 C 6.213 5.187 6.307 5.151 6.353 5.151 C 6.399 5.151 6.38 5.187 6.311 5.232 C 6.243 5.276 6.149 5.313 6.104 5.313 C 6.058 5.313 6.077 5.276 6.146 5.232 Z  M 12.955 5.232 C 12.88 5.183 12.87 5.151 12.929 5.15 C 12.984 5.15 13.052 5.187 13.08 5.232 C 13.143 5.335 13.114 5.335 12.955 5.232 Z  M 16.739 4.675 C 16.694 4.557 16.703 4.547 16.785 4.629 C 16.842 4.684 16.868 4.752 16.842 4.777 C 16.816 4.803 16.77 4.757 16.739 4.675 Z  M 11.195 4.677 C 11.255 4.653 11.327 4.656 11.355 4.683 C 11.382 4.711 11.333 4.731 11.246 4.727 C 11.149 4.723 11.129 4.703 11.195 4.677 L 11.195 4.677 Z  M 20.589 3.841 L 20.387 3.613 L 20.616 3.813 C 20.829 4.002 20.883 4.069 20.817 4.069 C 20.802 4.069 20.7 3.967 20.589 3.841 Z  M 3.53 3.737 C 3.612 3.645 3.699 3.571 3.721 3.571 C 3.744 3.571 3.695 3.645 3.613 3.737 C 3.53 3.828 3.443 3.903 3.421 3.903 C 3.398 3.903 3.447 3.828 3.53 3.737 Z  M 15.768 3.426 C 15.664 3.294 15.668 3.291 15.8 3.394 C 15.938 3.503 15.981 3.571 15.913 3.571 C 15.896 3.571 15.831 3.506 15.768 3.426 Z  M 16.266 2.679 C 16.163 2.547 16.166 2.543 16.298 2.647 C 16.377 2.709 16.443 2.775 16.443 2.793 C 16.443 2.86 16.375 2.817 16.266 2.679 Z  M 6.561 1.462 C 6.561 1.444 6.619 1.407 6.689 1.38 C 6.764 1.352 6.796 1.365 6.768 1.413 C 6.719 1.491 6.561 1.529 6.561 1.462 Z  M 6.975 1.245 C 7.044 1.202 7.137 1.165 7.184 1.165 C 7.229 1.165 7.21 1.202 7.142 1.245 C 7.073 1.29 6.98 1.326 6.934 1.326 C 6.889 1.326 6.907 1.29 6.975 1.245 Z  M 11.107 1.191 C 11.164 1.167 11.258 1.167 11.315 1.191 C 11.372 1.214 11.325 1.233 11.211 1.233 C 11.097 1.233 11.05 1.214 11.107 1.191 Z  M 9.783 1.023 C 9.843 0.999 9.915 1.002 9.943 1.029 C 9.97 1.057 9.921 1.077 9.834 1.073 C 9.737 1.069 9.717 1.049 9.783 1.023 L 9.783 1.023 Z  M 16.36 0.997 C 16.292 0.952 16.273 0.916 16.318 0.916 C 16.364 0.916 16.457 0.952 16.526 0.997 C 16.594 1.041 16.613 1.077 16.568 1.077 C 16.521 1.077 16.428 1.041 16.36 0.997 Z  M 8.199 0.937 C 8.346 0.918 8.607 0.918 8.781 0.936 C 8.953 0.954 8.832 0.969 8.512 0.969 C 8.193 0.969 8.051 0.955 8.199 0.937 L 8.199 0.937 Z  M 11.253 0.249 L 11.003 0.186 L 11.269 0.176 C 11.415 0.171 11.557 0.203 11.585 0.249 C 11.642 0.341 11.613 0.341 11.253 0.249 Z  M 12.851 0.194 C 12.909 0.171 13.002 0.171 13.059 0.194 C 13.116 0.217 13.069 0.236 12.955 0.236 C 12.841 0.236 12.794 0.217 12.851 0.194 Z " fill="rgb(111,111,111)"/><path d=" M 11.604 15.527 C 10.13 15.155 9.124 13.857 9.12 12.317 C 9.117 11.168 9.612 10.206 10.532 9.577 C 11.365 9.007 12.253 8.845 13.204 9.091 C 14.194 9.347 14.931 9.95 15.388 10.877 C 15.636 11.379 15.654 11.474 15.654 12.289 C 15.654 13.098 15.634 13.203 15.39 13.719 C 15.059 14.418 14.553 14.93 13.846 15.277 C 13.389 15.502 13.182 15.552 12.607 15.577 C 12.228 15.593 11.776 15.571 11.604 15.527 Z " fill="rgb(255,255,255)"/></g></g></g></svg>