<?xml version="1.0" standalone="no"?><!-- Generator: Gravit.io --><svg xmlns="http://www.w3.org/2000/svg" xmlns:xlink="http://www.w3.org/1999/xlink" style="isolation:isolate" viewBox="0 0 28 28" width="28" height="28"><defs><clipPath id="_clipPath_K8liCNhXOumHWcb9nZBIGUloVTnAFsMT"><rect width="28" height="28"/></clipPath></defs><g clip-path="url(#_clipPath_K8liCNhXOumHWcb9nZBIGUloVTnAFsMT)"><path d=" M 22.556 3 L 5.444 3 C 4.094 3 3 4.094 3 5.444 L 3 22.556 C 3 23.906 4.094 25 5.444 25 L 22.556 25 C 23.906 25 25 23.906 25 22.556 L 25 5.444 C 25 4.094 23.906 3 22.556 3 Z  M 20.172 10.962 C 20.172 11.067 20.172 11.171 20.172 11.381 C 20.172 15.362 17.134 19.972 11.581 19.972 C 9.906 19.972 8.334 19.447 6.972 18.61 C 7.181 18.61 7.497 18.61 7.706 18.61 C 9.067 18.61 10.43 18.086 11.477 17.353 C 10.116 17.353 9.068 16.41 8.649 15.258 C 8.858 15.258 9.068 15.363 9.173 15.363 C 9.488 15.363 9.698 15.363 10.012 15.258 C 8.65 14.944 7.603 13.791 7.603 12.324 C 8.022 12.533 8.441 12.638 8.964 12.744 C 8.126 12.01 7.603 11.172 7.603 10.124 C 7.603 9.6 7.708 9.077 8.022 8.658 C 9.489 10.438 11.689 11.696 14.203 11.8 C 14.203 11.591 14.098 11.381 14.098 11.067 C 14.098 9.391 15.459 8.028 17.136 8.028 C 17.975 8.028 18.812 8.342 19.336 8.971 C 20.07 8.865 20.698 8.551 21.222 8.237 C 21.013 8.971 20.489 9.495 19.861 9.913 C 20.489 9.808 21.013 9.704 21.641 9.389 C 21.22 10.019 20.697 10.542 20.172 10.962 Z " fill="rgb(255,255,255)"/></g></svg>