<?xml version="1.0" standalone="no"?><!-- Generator: Gravit.io --><svg xmlns="http://www.w3.org/2000/svg" style="isolation:isolate" viewBox="0 0 800 600" width="800" height="600" ><defs><clipPath id="_clipPath_3SWvHepmanxLy26jhyhhppMJVThqMHel"><rect width="800" height="600"/></clipPath></defs><g clip-path="url(#_clipPath_3SWvHepmanxLy26jhyhhppMJVThqMHel)"><g><path d=" M 170.041 490.216 C 275.596 617.268 464.162 634.694 591.214 529.139 C 718.266 423.584 735.692 235.018 630.137 107.966 C 606.184 129.923 579.237 143.896 548.298 147.888 C 468.455 169.845 418.553 219.747 398.592 297.594 C 386.615 376.439 336.714 426.341 248.886 447.3 C 220.941 452.29 193.994 466.263 170.041 490.216 Z " fill-rule="evenodd" fill="rgb(255,255,255)"/><path d=" M 629.139 107.966 C 523.584 -19.086 335.018 -36.512 207.966 69.043 C 80.914 174.598 63.488 363.164 169.043 490.216 C 192.996 468.259 219.943 454.286 250.882 450.294 C 330.725 428.337 380.627 378.435 400.588 300.588 C 412.565 221.743 462.467 171.841 550.294 150.882 C 578.239 145.892 605.186 131.919 629.139 107.966 Z " fill-rule="evenodd" fill="rgb(13,159,255)"/><clipPath id="_clipPath_uzqVDzzKzPY4QU8i2TRXEvbzFdsLgSAF"><path d=" M 101.176 600 C 135.109 509.178 185.011 459.276 250.882 450.294 C 330.725 428.337 380.627 378.435 400.588 300.588 C 412.565 221.743 462.467 171.841 550.294 150.882 C 608.18 141.9 658.082 91.998 700 1.176 L 700 600 L 101.176 600 Z " fill="rgb(255,255,255)"/></clipPath><g clip-path="url(#_clipPath_uzqVDzzKzPY4QU8i2TRXEvbzFdsLgSAF)"><g><path d=" M 405.578 455.284 L 371.645 455.284 L 335.715 364.463 L 221.939 364.463 L 187.008 455.284 L 153.074 455.284 L 265.853 168.847 L 293.798 168.847 L 405.578 455.284 Z  M 232.917 334.521 L 325.735 334.521 L 292.8 246.694 Q 285.813 229.727 278.827 205.774 Q 274.835 224.737 266.851 246.694 L 232.917 334.521 Z  M 625.147 253.68 Q 625.147 296.596 596.204 320.549 Q 566.263 343.504 511.37 343.504 L 478.435 343.504 L 478.435 455.284 L 444.502 455.284 L 444.502 170.843 L 518.357 170.843 Q 625.147 170.843 625.147 253.68 Z  M 478.435 198.788 L 478.435 314.561 L 507.378 314.561 Q 552.29 314.561 571.253 300.588 Q 591.214 286.615 591.214 254.678 Q 591.214 226.733 573.249 212.761 Q 554.286 198.788 515.363 198.788 L 478.435 198.788 Z " fill="rgb(13,159,255)"/></g></g><path d=" M 348.69 396.4 L 335.715 364.463 L 221.939 364.463 L 187.008 455.284 L 153.074 455.284 L 265.853 168.847 L 293.798 168.847 L 371.645 367.457 C 364.659 378.435 356.674 387.418 348.69 396.4 Z  M 494.404 170.843 L 444.502 170.843 L 444.502 205.774 C 458.474 191.802 474.443 179.825 494.404 170.843 Z  M 232.917 334.521 L 325.735 334.521 L 292.8 246.694 Q 285.813 229.727 278.827 205.774 Q 274.835 224.737 266.851 246.694 L 232.917 334.521 Z " fill-rule="evenodd" fill="rgb(255,255,255)"/></g></g></svg>